<?xml version="1.0" standalone="no"?>
<!DOCTYPE svg PUBLIC "-//W3C//DTD SVG 20010904//EN"
 "http://www.w3.org/TR/2001/REC-SVG-20010904/DTD/svg10.dtd">
<svg version="1.0" xmlns="http://www.w3.org/2000/svg"
 width="1024.000000pt" height="1024.000000pt" viewBox="0 0 1024.000000 1024.000000"
 preserveAspectRatio="xMidYMid meet">

<g transform="translate(0.000000,1024.000000) scale(0.100000,-0.100000)"
fill="#000000" stroke="none">
<path d="M5015 9720 c-160 -26 -293 -90 -400 -194 -147 -144 -215 -304 -215
-510 0 -76 -2 -85 -26 -107 -41 -38 -82 -107 -89 -148 -8 -46 8 -110 34 -142
l19 -24 -192 -66 c-416 -144 -677 -270 -1001 -485 -441 -291 -841 -745 -1101
-1248 -101 -196 -142 -290 -199 -461 -120 -356 -168 -654 -168 -1035 0 -289
21 -483 89 -817 l7 -33 -887 0 -886 0 0 -2225 0 -2225 5120 0 5120 0 0 2225 0
2225 -875 0 c-481 0 -875 2 -875 5 0 3 9 47 21 98 54 243 71 391 76 674 6 286
-1 400 -38 612 -84 488 -284 970 -567 1365 -167 233 -420 506 -612 658 -392
312 -859 554 -1325 688 -61 17 -116 33 -123 35 -9 3 -5 16 14 44 52 79 42 156
-31 251 -41 54 -42 57 -48 155 -8 124 -26 197 -76 300 -89 182 -243 309 -441
364 -85 24 -241 34 -325 21z m218 -151 c60 -12 77 -29 29 -29 -34 0 -120 -28
-182 -60 -77 -39 -160 -133 -216 -245 l-51 -99 -79 -12 c-43 -7 -101 -19 -129
-28 -27 -8 -50 -14 -52 -12 -8 7 33 119 69 188 115 223 368 346 611 297z
m-202 -553 c73 -16 144 -49 229 -106 173 -116 370 -200 473 -200 45 0 82 31
73 63 -5 21 -4 21 15 -2 25 -31 24 -47 -6 -76 -39 -40 -117 -34 -336 23 l-184
47 -165 -1 c-151 -1 -179 -4 -330 -38 -208 -46 -279 -56 -326 -46 -42 10 -54
23 -54 64 0 22 15 43 69 96 102 101 195 149 336 175 92 17 127 17 206 1z m225
-386 c47 -9 320 -71 371 -85 8 -3 5 -29 -11 -91 -18 -73 -26 -88 -46 -96 -40
-15 -590 -22 -754 -9 -82 6 -151 13 -153 15 -4 4 -52 180 -50 182 4 2 383 84
407 87 52 9 179 7 236 -3z m278 -797 c3 -76 9 -152 12 -169 5 -27 3 -32 -18
-37 -63 -16 -347 -29 -498 -22 -150 6 -305 21 -321 31 -3 2 0 41 7 86 8 46 14
120 14 166 l0 82 399 0 398 0 7 -137z m-2169 -88 c107 -31 214 -133 255 -243
35 -92 42 -181 25 -308 -14 -109 -54 -288 -96 -424 l-19 -65 -308 2 -307 2
-43 146 c-119 410 -109 622 36 777 114 122 286 165 457 113z m3768 10 c134
-28 235 -108 293 -229 75 -157 58 -367 -59 -745 l-22 -75 -305 3 c-168 1 -308
6 -311 9 -3 4 -25 77 -47 162 -94 353 -97 542 -9 689 72 121 206 194 362 200
17 0 61 -6 98 -14z m-2393 -517 c110 -20 158 -23 400 -22 237 1 291 4 390 22
63 12 124 24 135 27 18 5 33 -19 122 -197 183 -364 268 -588 328 -856 33 -152
43 -248 24 -237 -8 5 -48 31 -89 58 -159 104 -358 184 -567 229 -96 20 -135
23 -353 23 -264 0 -354 -11 -549 -70 -141 -42 -342 -136 -443 -207 l-28 -19 0
23 c0 34 29 205 46 273 47 186 144 443 246 650 157 319 167 338 191 331 12 -3
78 -16 147 -28z m-1256 -890 c3 -51 9 -108 12 -125 l6 -33 -272 0 -273 0 7 38
c3 20 6 76 6 125 l0 87 254 0 253 0 7 -92z m3809 -15 c3 -60 8 -116 12 -125 7
-17 -10 -18 -270 -18 l-277 0 6 28 c3 15 9 71 13 125 l6 97 252 0 252 0 6
-107z m-2403 -358 c-142 -52 -384 -177 -480 -248 -352 -261 -598 -639 -689
-1058 -26 -124 -45 -313 -39 -406 3 -43 1 -70 -4 -65 -17 17 -66 239 -78 353
-10 99 -10 136 4 240 25 196 67 328 156 496 119 223 278 399 475 525 197 127
425 196 650 197 l100 0 -95 -34z m-1850 -35 c124 -14 293 -12 426 5 65 9 120
12 124 8 4 -4 39 -77 78 -162 l71 -153 -66 -92 c-223 -311 -337 -740 -304
-1149 7 -83 19 -187 27 -231 41 -223 143 -466 276 -664 l50 -73 -39 -97 c-28
-73 -44 -100 -63 -109 -43 -20 -232 -43 -356 -43 -142 0 -283 15 -341 36 -40
15 -43 18 -79 112 -20 53 -65 163 -100 243 -244 572 -299 1125 -164 1636 36
133 132 390 225 601 l68 154 41 -6 c23 -4 79 -11 126 -16z m3795 0 c99 -13
261 -12 390 2 183 19 162 26 207 -77 224 -510 290 -730 319 -1062 16 -186 -3
-468 -45 -663 -40 -190 -99 -369 -191 -585 -40 -93 -82 -199 -94 -234 -33
-100 -37 -103 -192 -126 -115 -17 -298 -19 -419 -5 -91 11 -186 35 -194 49 -3
4 -23 53 -44 108 l-39 100 59 89 c287 427 370 996 220 1504 -49 163 -134 342
-237 495 l-58 85 48 108 c27 59 62 136 78 171 l30 63 46 -7 c25 -3 78 -11 116
-15z m-1341 -167 c57 -41 78 -85 74 -155 -9 -135 -134 -214 -253 -159 -67 30
-117 107 -114 176 2 63 65 147 123 165 51 16 126 4 170 -27z m-822 -149 c66
-34 97 -137 60 -204 -75 -137 -292 -86 -292 68 0 121 121 192 232 136z m1239
-296 c110 -37 161 -157 109 -258 -78 -153 -300 -121 -338 48 -31 135 99 255
229 210z m543 -2030 c8 -13 17 -34 21 -47 l8 -25 -31 26 c-17 14 -37 28 -44
30 -10 4 -10 8 1 21 18 23 28 21 45 -5z m-2611 0 c2 -7 -11 -23 -29 -35 l-33
-21 16 34 c17 35 37 44 46 22z m134 -134 c-1 -1 -29 -24 -63 -51 -33 -26 -109
-92 -170 -145 -60 -54 -173 -150 -251 -215 -78 -65 -225 -193 -328 -285 l-187
-168 -246 0 -246 0 70 48 c126 88 407 287 544 385 184 132 395 273 513 342 54
32 137 86 185 120 l87 62 47 -45 c26 -25 47 -47 45 -48z m2438 69 c22 -14 61
-44 87 -65 25 -21 66 -47 91 -58 98 -43 373 -222 464 -301 55 -49 93 -77 274
-204 31 -22 139 -98 239 -170 l183 -130 -243 -3 -242 -2 -107 97 c-58 53 -115
106 -127 117 -28 28 -145 132 -216 192 -31 27 -119 103 -196 169 -76 66 -184
158 -240 205 -55 47 -101 89 -101 94 -1 8 79 85 89 86 3 0 23 -12 45 -27z
m-3662 -20 l15 -38 -63 -32 c-117 -60 -323 -143 -516 -208 -106 -36 -197 -65
-203 -65 -6 0 5 10 24 22 50 32 703 358 716 358 7 0 19 -17 27 -37z m5471
-320 c22 -14 33 -22 24 -19 -374 120 -452 149 -649 246 l-106 52 20 38 21 38
324 -165 c178 -91 343 -177 366 -190z m-1829 131 c49 -40 187 -159 231 -199 6
-5 44 -39 84 -75 40 -36 78 -70 84 -75 6 -6 72 -65 146 -132 165 -148 250
-229 250 -237 0 -3 -121 -6 -268 -6 l-268 0 -45 53 c-24 28 -60 72 -79 97 -19
25 -82 104 -141 175 -113 138 -309 396 -309 406 0 4 21 21 48 38 26 17 63 44
82 60 l35 30 45 -43 c25 -23 72 -65 105 -92z m-2300 66 c117 -78 235 -144 330
-184 50 -21 94 -42 99 -47 5 -4 -16 -54 -47 -111 -30 -57 -80 -152 -112 -213
-31 -60 -73 -138 -93 -172 l-36 -63 -284 0 -284 0 49 58 c225 269 333 416 295
400 -10 -4 -128 -137 -254 -288 -52 -63 -107 -127 -120 -143 l-24 -27 -284 2
-283 3 204 185 c250 228 439 394 499 440 62 47 156 127 210 177 24 23 49 39
55 36 5 -4 42 -27 80 -53z m-927 -65 c-45 -30 -149 -97 -230 -148 -392 -246
-586 -370 -733 -466 l-160 -106 -82 -3 c-46 -2 -83 0 -83 4 1 19 1089 724
1117 724 5 0 24 11 43 25 30 22 44 25 123 25 l89 0 -84 -55z m4057 34 c17 -11
62 -38 100 -61 39 -23 115 -71 170 -106 454 -294 843 -549 875 -574 l25 -20
-100 4 -100 4 -232 155 c-128 84 -279 184 -335 220 -100 65 -358 233 -504 328
-39 25 -80 51 -90 58 -16 10 -3 12 71 12 75 1 95 -3 120 -20z m-994 -261 c91
-123 193 -263 227 -313 34 -49 78 -111 98 -137 l36 -48 -285 0 -286 0 -32 68
c-31 65 -127 277 -194 431 l-33 74 142 72 c77 40 146 73 151 74 6 0 85 -99
176 -221z m-491 51 c0 -8 98 -249 140 -344 58 -129 80 -181 82 -193 2 -11 -47
-13 -257 -12 -142 0 -260 2 -261 3 -1 1 -19 107 -39 236 -40 251 -40 250 15
251 29 0 206 43 265 64 40 14 55 13 55 -5z m-1083 -23 c48 -13 128 -29 176
-36 l89 -14 -7 -40 c-16 -98 -56 -355 -62 -393 l-6 -43 -278 0 c-154 0 -279 1
-279 3 0 2 35 70 78 152 44 83 105 205 138 272 32 67 60 122 61 122 1 1 41
-10 90 -23z m698 -231 c13 -92 27 -197 31 -233 l6 -67 -251 3 -250 3 4 27 c3
15 16 106 30 202 14 96 28 190 31 207 l5 33 177 2 c97 2 181 0 185 -3 5 -4 19
-82 32 -174z m2404 -526 c74 -17 151 -61 215 -124 189 -185 191 -484 4 -667
-65 -65 -146 -110 -226 -127 -38 -8 -760 -11 -2635 -11 -2900 0 -2644 -7
-2771 78 -124 82 -199 212 -213 363 -19 212 143 434 352 485 65 16 5205 19
5274 3z"/>
<path d="M3873 1803 c-21 -8 -15 -52 27 -212 52 -197 49 -193 113 -189 58 3
65 12 90 103 8 29 16 44 20 35 3 -8 13 -42 24 -75 l18 -60 52 -3 c42 -2 54 1
61 15 5 10 29 88 52 173 23 85 44 162 46 170 7 25 -11 41 -52 47 -52 7 -59 -3
-86 -112 l-21 -88 -18 89 c-20 97 -33 114 -85 114 -46 0 -59 -18 -79 -107 -9
-43 -20 -82 -24 -86 -4 -4 -13 25 -21 65 -18 103 -32 128 -73 127 -17 0 -38
-3 -44 -6z"/>
<path d="M4447 1803 c-17 -3 -31 -13 -36 -26 -5 -12 -5 -101 -2 -197 l6 -175
130 0 130 0 3 43 3 42 -58 0 c-82 0 -103 8 -103 36 0 21 5 24 34 24 18 0 48 3
65 6 29 6 31 9 31 50 l0 43 -62 3 c-56 3 -63 5 -66 25 -3 22 15 28 118 35 33
3 35 5 38 44 3 36 0 42 -20 48 -25 6 -165 6 -211 -1z"/>
<path d="M4726 1794 c-13 -13 -16 -44 -16 -185 0 -98 4 -179 10 -190 10 -17
22 -19 130 -19 118 0 120 0 126 24 3 13 1 34 -6 45 -9 18 -20 21 -75 21 l-65
0 0 144 c0 159 -6 176 -60 176 -16 0 -36 -7 -44 -16z"/>
<path d="M5085 1796 c-73 -32 -111 -116 -102 -223 5 -72 29 -118 78 -151 29
-20 44 -23 97 -20 51 3 67 9 89 30 24 25 25 29 13 58 -14 34 -8 33 -98 14 -40
-8 -64 23 -70 89 -3 42 0 57 18 80 23 29 45 33 85 15 22 -10 29 -8 50 12 32
30 31 40 -5 75 -35 33 -107 43 -155 21z"/>
<path d="M5384 1796 c-72 -31 -112 -139 -94 -251 15 -91 60 -136 145 -143 71
-6 127 24 156 85 23 48 28 168 9 219 -33 85 -132 126 -216 90z m100 -118 c22
-31 22 -135 -1 -160 -24 -26 -58 -23 -71 7 -18 39 -15 140 4 159 22 22 50 20
68 -6z"/>
<path d="M5669 1803 c-24 -6 -29 -46 -29 -217 0 -177 4 -189 65 -184 l40 3 5
75 5 75 25 -50 c24 -47 27 -50 65 -50 38 0 41 3 65 50 l25 50 3 -72 c3 -67 5
-73 26 -79 13 -3 37 -4 52 -2 l29 3 3 190 c2 170 1 191 -15 202 -25 19 -89 16
-109 -4 -15 -15 -46 -78 -68 -138 -6 -16 -13 -7 -37 50 -17 38 -37 78 -46 87
-15 17 -63 22 -104 11z"/>
<path d="M6105 1794 c-13 -14 -15 -43 -13 -202 l3 -187 128 -3 c126 -3 127 -2
138 21 8 18 8 30 0 46 -10 17 -21 21 -64 21 -76 0 -97 8 -97 36 0 22 4 24 43
24 77 0 87 7 87 56 0 43 -1 44 -34 44 -60 0 -96 11 -96 30 0 19 36 30 101 30
62 0 88 41 49 80 -17 17 -33 20 -124 20 -82 0 -108 -3 -121 -16z"/>
</g>
</svg>
