<?xml version="1.0" standalone="no"?>
<!DOCTYPE svg PUBLIC "-//W3C//DTD SVG 20010904//EN"
 "http://www.w3.org/TR/2001/REC-SVG-20010904/DTD/svg10.dtd">
<svg version="1.0" xmlns="http://www.w3.org/2000/svg"
 width="1024.000000pt" height="1024.000000pt" viewBox="0 0 1024.000000 1024.000000"
 preserveAspectRatio="xMidYMid meet">

<g transform="translate(0.000000,1024.000000) scale(0.100000,-0.100000)"
fill="#000000" stroke="none">
<path d="M5255 8394 c-204 -45 -384 -196 -461 -385 -13 -32 -31 -100 -40 -151
-20 -115 -15 -192 31 -465 56 -328 56 -518 2 -678 -35 -103 -55 -136 -169
-291 -56 -76 -121 -167 -143 -202 -22 -34 -42 -62 -45 -62 -7 0 -75 165 -96
235 -15 48 -19 94 -19 230 0 153 4 187 34 335 52 261 52 374 -2 488 -33 71
-120 157 -195 194 -57 28 -78 33 -162 36 -70 3 -113 0 -153 -12 -112 -33 -226
-136 -269 -246 -35 -87 -36 -236 -4 -392 43 -211 56 -309 56 -435 0 -203 -31
-313 -177 -626 -220 -474 -297 -824 -272 -1237 16 -262 61 -451 175 -742 30
-75 54 -143 54 -150 1 -9 3 -9 9 2 5 8 11 51 15 95 15 169 79 389 166 573 220
461 586 815 1039 1006 394 166 875 202 1294 96 597 -151 1094 -550 1354 -1088
90 -187 172 -493 173 -645 1 -50 3 -46 51 98 59 179 123 421 144 548 22 130
30 417 16 561 -26 266 -99 502 -273 886 -102 226 -133 305 -156 406 -43 187
-38 315 23 620 20 97 35 204 35 242 0 208 -118 374 -304 427 -88 26 -233 18
-308 -17 -108 -50 -204 -163 -233 -275 -24 -93 -19 -193 22 -390 33 -164 36
-192 37 -353 0 -118 -4 -190 -13 -220 -21 -72 -92 -250 -99 -249 -4 0 -26 30
-50 67 -23 37 -85 121 -137 187 -104 132 -151 214 -185 320 -19 58 -23 101
-27 250 -4 154 -2 197 17 300 85 476 80 623 -27 804 -78 131 -218 244 -363
291 -88 29 -268 36 -365 14z m287 -224 c178 -55 309 -232 310 -420 0 -36 -16
-166 -37 -290 -20 -124 -39 -273 -42 -332 l-6 -108 -206 -1 c-186 -1 -233 0
-237 4 -1 1 -4 28 -7 60 -3 44 -1 57 9 57 8 0 14 -6 14 -12 0 -9 3 -10 8 -2 4
7 50 12 117 13 61 1 126 4 145 6 28 4 30 3 10 -3 -14 -5 -79 -12 -145 -16 -72
-4 -121 -11 -124 -17 -2 -7 -6 -7 -12 2 -4 7 -11 10 -15 6 -4 -4 -2 -13 4 -19
7 -7 12 -25 12 -41 l0 -28 73 2 c94 3 107 7 107 33 0 19 6 22 38 23 86 1 103
3 97 13 -3 6 -18 10 -33 11 l-27 0 25 10 c14 6 39 8 55 5 17 -2 24 -2 18 1
-24 9 -13 22 30 31 32 8 3 10 -133 11 -96 1 -258 4 -360 8 l-185 6 -38 256
c-41 281 -44 339 -22 424 22 83 50 133 109 193 118 117 294 162 448 114z
m-1447 -675 c57 -33 110 -96 129 -153 19 -56 20 -180 2 -277 -8 -38 -22 -116
-32 -172 l-18 -103 -117 0 -116 0 5 25 c4 25 6 25 98 25 89 0 94 1 98 23 16
82 38 330 32 379 -14 142 -132 257 -266 261 -27 1 -50 3 -50 4 0 1 15 7 33 12
53 17 153 5 202 -24z m2874 9 c56 -23 128 -101 151 -162 29 -76 25 -175 -14
-377 l-33 -170 -114 3 c-156 3 -156 3 -164 54 -4 24 -11 59 -16 78 -50 200
-63 283 -60 397 1 36 4 41 19 36 14 -6 15 -4 5 8 -10 12 -9 20 3 37 8 12 13
26 10 30 -9 15 25 52 48 52 12 0 31 -7 42 -15 18 -14 18 -14 -8 -15 -15 0 -29
-3 -31 -7 -9 -14 49 -8 66 6 15 11 21 11 44 -5 23 -15 26 -15 15 -1 -16 19
-120 60 -133 52 -5 -4 -9 -2 -9 4 0 24 116 21 179 -5z m-1632 -350 c-3 -3 -12
-4 -19 -1 -8 3 -5 6 6 6 11 1 17 -2 13 -5z m150 -1 c-20 -2 -52 -2 -70 0 -17
2 0 4 38 4 39 0 53 -2 32 -4z m-130 -100 c-3 -10 -5 -4 -5 12 0 17 2 24 5 18
2 -7 2 -21 0 -30z m423 -279 c0 -92 68 -262 157 -395 27 -41 101 -150 164
-244 101 -150 247 -410 237 -420 -2 -2 -49 14 -103 36 -256 103 -509 149 -823
149 -193 0 -322 -12 -461 -42 -115 -24 -324 -90 -408 -128 -35 -16 -63 -27
-63 -25 0 3 17 42 39 88 63 138 102 201 343 559 47 70 97 155 109 189 l24 61
140 -3 139 -4 14 55 c7 30 14 66 13 80 0 15 3 19 6 10 3 -8 11 -18 17 -22 7
-5 5 -17 -8 -38 -20 -35 -13 -50 23 -53 30 -2 26 -15 -6 -20 -16 -2 76 -4 202
-4 127 0 210 2 185 4 -25 1 -79 6 -120 10 -69 6 -72 7 -35 14 l40 6 -42 2
c-36 1 -43 4 -43 22 0 19 -5 20 -77 18 -67 -2 -77 0 -84 17 -5 16 -7 14 -11
-11 l-5 -30 -2 33 c-1 29 2 32 27 33 26 0 26 1 5 9 -13 5 -23 17 -23 25 0 9
-4 14 -9 11 -5 -3 -7 -16 -4 -29 7 -26 -5 -18 -21 15 -11 22 -18 23 -136 26
-133 2 -155 6 -145 22 4 6 138 10 376 10 l369 0 0 -36z m-450 -124 c0 -5 -4
-10 -10 -10 -5 0 -10 5 -10 10 0 6 5 10 10 10 6 0 10 -4 10 -10z m80 -6 c0 -2
-11 -3 -24 -2 -14 1 -23 5 -20 9 4 7 44 0 44 -7z m-1240 -69 l0 -65 -115 0
-115 0 0 65 0 65 115 0 115 0 0 -65z m2890 0 l0 -65 -120 0 -120 0 0 65 0 65
120 0 120 0 0 -65z m-2840 -330 c20 -60 51 -143 68 -184 18 -40 32 -76 32 -81
0 -4 -18 -40 -40 -80 -47 -85 -111 -242 -130 -318 -13 -49 -20 -58 -112 -132
l-98 -80 0 490 0 489 103 4 c56 2 111 3 121 3 15 -1 27 -23 56 -111z m2865 68
c11 -59 78 -247 169 -472 135 -333 192 -542 216 -790 11 -117 13 -286 4 -356
l-7 -47 -23 53 c-13 30 -24 74 -25 99 -1 33 -3 37 -6 16 -4 -27 -8 -23 -64 60
-32 49 -59 96 -59 104 0 9 -5 21 -12 28 -9 9 -7 16 9 31 11 11 24 17 28 13 5
-4 3 2 -2 12 -8 15 -5 30 14 65 32 62 38 111 23 179 -13 63 -33 118 -25 72 14
-88 15 -104 6 -90 -6 8 -11 31 -12 50 -2 30 -3 28 -9 -15 -4 -27 -8 -40 -8
-28 -1 12 -7 25 -13 29 -7 4 -10 -3 -9 -17 1 -13 2 -43 1 -66 -1 -37 -4 -43
-23 -43 l-21 0 23 -24 c16 -18 21 -32 17 -53 -3 -17 0 -34 9 -45 12 -12 12
-18 3 -24 -8 -4 -10 -3 -5 4 4 7 3 12 -3 12 -5 0 -11 -6 -14 -12 -2 -7 -8 -9
-13 -5 -5 4 -2 12 6 18 13 8 13 10 0 19 -13 9 -13 11 0 20 8 5 10 10 4 10 -6
0 -19 -9 -29 -20 -18 -20 -18 -21 -1 -14 15 6 17 3 12 -14 -4 -12 -2 -24 6
-29 7 -4 14 -17 15 -28 1 -18 -1 -17 -18 5 -69 87 -93 114 -174 199 -49 51
-89 97 -88 102 2 5 -3 6 -10 3 -7 -2 -28 12 -47 32 -19 20 -28 35 -20 32 8 -3
22 2 30 10 13 14 13 15 0 10 -52 -19 -57 -18 -98 19 l-42 38 10 380 c5 209 7
390 3 403 -3 14 -1 22 7 22 9 0 11 11 6 40 l-6 40 80 0 c47 0 80 -4 80 -10 0
-5 8 -10 18 -10 14 0 14 2 3 9 -11 7 -7 10 15 13 49 6 62 -2 69 -39z"/>
<path d="M6796 7471 c-4 -5 3 -7 14 -4 23 6 26 13 6 13 -8 0 -17 -4 -20 -9z"/>
<path d="M6887 7449 c7 -7 15 -10 18 -7 3 3 -2 9 -12 12 -14 6 -15 5 -6 -5z"/>
<path d="M6770 7441 c0 -6 5 -13 10 -16 6 -3 10 -16 10 -27 0 -12 3 -19 6 -15
9 8 -6 67 -17 67 -5 0 -9 -4 -9 -9z"/>
<path d="M6761 7394 c0 -11 3 -14 6 -6 3 7 2 16 -1 19 -3 4 -6 -2 -5 -13z"/>
<path d="M6980 7406 c0 -2 8 -10 18 -17 15 -13 16 -12 3 4 -13 16 -21 21 -21
13z"/>
<path d="M6960 7344 c0 -10 5 -26 10 -34 8 -11 9 -7 4 15 -8 37 -14 45 -14 19z"/>
<path d="M6986 7345 c4 -8 8 -15 10 -15 2 0 4 7 4 15 0 8 -4 15 -10 15 -5 0
-7 -7 -4 -15z"/>
<path d="M6960 7220 c0 -16 -7 -20 -34 -20 -36 0 -46 -15 -46 -72 0 -16 -4
-28 -10 -28 -5 0 -10 -7 -10 -16 0 -8 5 -12 10 -9 6 3 10 -3 10 -14 0 -19 6
-21 65 -21 l65 0 0 75 c0 77 -14 125 -37 125 -7 0 -13 -9 -13 -20z m40 -60 c0
-22 -4 -40 -10 -40 -5 0 -10 18 -10 40 0 22 5 40 10 40 6 0 10 -18 10 -40z"/>
<path d="M6782 7180 c0 -14 2 -19 5 -12 2 6 2 18 0 25 -3 6 -5 1 -5 -13z"/>
<path d="M6860 7013 c0 -24 5 -43 10 -43 13 0 13 50 0 70 -7 11 -10 4 -10 -27z"/>
<path d="M6881 6904 c0 -11 -10 -29 -21 -39 -11 -10 -20 -25 -20 -33 0 -8 11
2 26 23 14 20 23 45 21 54 -3 11 -5 10 -6 -5z"/>
<path d="M5560 6760 c34 -5 14 -8 -80 -11 l-125 -3 125 -6 125 -5 -97 -5 c-56
-4 -103 -11 -110 -18 -9 -9 -5 -12 20 -12 18 0 32 5 32 10 0 6 30 10 71 10 53
0 69 -3 64 -12 -4 -7 0 -5 8 5 9 10 30 18 53 18 l39 2 -40 7 c-30 5 -34 8 -15
10 24 2 24 3 -5 10 -16 4 -48 7 -70 7 l-40 0 45 -7z"/>
<path d="M6838 6327 c6 -7 12 -30 15 -52 3 -36 4 -35 5 13 2 42 -1 52 -14 52
-12 0 -14 -3 -6 -13z"/>
<path d="M6870 6332 c0 -4 18 -6 40 -4 22 2 40 6 40 8 0 2 -18 4 -40 4 -22 0
-40 -3 -40 -8z"/>
<path d="M6970 6304 c6 -14 10 -39 10 -55 0 -17 3 -28 8 -25 13 8 1 94 -14
100 -10 4 -11 0 -4 -20z"/>
<path d="M6890 6310 c0 -5 7 -10 15 -10 8 0 15 5 15 10 0 6 -7 10 -15 10 -8 0
-15 -4 -15 -10z"/>
<path d="M7002 6272 c3 -29 10 -58 15 -63 7 -7 9 8 5 43 -2 29 -9 58 -14 63
-7 7 -9 -8 -6 -43z"/>
<path d="M6961 6264 c0 -11 3 -14 6 -6 3 7 2 16 -1 19 -3 4 -6 -2 -5 -13z"/>
<path d="M6832 6215 c0 -16 2 -22 5 -12 2 9 2 23 0 30 -3 6 -5 -1 -5 -18z"/>
<path d="M6962 6215 c0 -16 2 -22 5 -12 2 9 2 23 0 30 -3 6 -5 -1 -5 -18z"/>
<path d="M6856 6213 c-4 -9 -2 -21 4 -27 7 -7 10 -2 10 17 0 31 -5 34 -14 10z"/>
<path d="M6990 6195 c0 -8 4 -15 10 -15 5 0 7 7 4 15 -4 8 -8 15 -10 15 -2 0
-4 -7 -4 -15z"/>
<path d="M6830 6128 c-3 -31 -1 -53 3 -49 5 5 7 30 5 57 l-3 49 -5 -57z"/>
<path d="M7041 6034 c0 -11 3 -14 6 -6 3 7 2 16 -1 19 -3 4 -6 -2 -5 -13z"/>
<path d="M6833 5965 c0 -22 2 -30 4 -17 2 12 2 30 0 40 -3 9 -5 -1 -4 -23z"/>
<path d="M7068 5947 c-3 -19 -2 -25 4 -19 6 6 8 18 6 28 -3 14 -5 12 -10 -9z"/>
<path d="M6832 5895 c0 -16 2 -22 5 -12 2 9 2 23 0 30 -3 6 -5 -1 -5 -18z"/>
<path d="M7131 5898 c-1 -9 4 -20 10 -24 6 -3 8 -15 5 -27 -4 -15 -2 -17 6 -9
9 9 8 20 -4 44 -10 20 -17 26 -17 16z"/>
<path d="M6862 5860 c0 -14 2 -19 5 -12 2 6 2 18 0 25 -3 6 -5 1 -5 -13z"/>
<path d="M7176 5785 c-9 -26 -7 -32 5 -12 6 10 9 21 6 23 -2 3 -7 -2 -11 -11z"/>
<path d="M7226 5664 c-3 -9 -2 -22 2 -31 6 -10 9 -5 9 16 0 35 -2 38 -11 15z"/>
<path d="M7248 5595 c5 -11 12 -27 15 -35 5 -13 6 -13 6 1 1 8 -6 24 -15 35
-15 19 -15 19 -6 -1z"/>
<path d="M7211 5534 c0 -11 3 -14 6 -6 3 7 2 16 -1 19 -3 4 -6 -2 -5 -13z"/>
<path d="M7217 5476 c-4 -15 -6 -31 -2 -34 10 -10 16 6 13 35 l-3 28 -8 -29z"/>
<path d="M7160 5401 c0 -35 3 -41 21 -41 17 0 20 5 17 37 -2 27 -8 39 -20 41
-15 3 -18 -4 -18 -37z"/>
<path d="M7220 5415 c0 -9 6 -12 15 -9 8 4 15 10 15 15 0 5 -7 9 -15 9 -8 0
-15 -7 -15 -15z"/>
<path d="M7230 5379 c0 -5 5 -7 10 -4 6 3 10 8 10 11 0 2 -4 4 -10 4 -5 0 -10
-5 -10 -11z"/>
<path d="M6940 5366 c0 -2 8 -10 18 -17 15 -13 16 -12 3 4 -13 16 -21 21 -21
13z"/>
<path d="M7200 5320 c0 -48 14 -52 29 -9 15 44 14 49 -9 49 -17 0 -20 -7 -20
-40z"/>
<path d="M7006 5322 c-2 -4 4 -8 14 -8 10 0 16 4 14 8 -3 4 -9 8 -14 8 -5 0
-11 -4 -14 -8z"/>
<path d="M7052 5257 c24 -24 45 -42 47 -40 3 2 0 8 -6 14 -6 6 -9 19 -6 28 3
11 2 13 -4 3 -7 -9 -15 -6 -33 13 -13 14 -27 25 -32 25 -5 0 11 -20 34 -43z"/>
<path d="M7104 5260 c0 -13 4 -16 10 -10 7 7 7 13 0 20 -6 6 -10 3 -10 -10z"/>
<path d="M7155 5160 c3 -5 8 -10 11 -10 2 0 4 5 4 10 0 6 -5 10 -11 10 -5 0
-7 -4 -4 -10z"/>
<path d="M7411 4884 c0 -11 3 -14 6 -6 3 7 2 16 -1 19 -3 4 -6 -2 -5 -13z"/>
<path d="M5205 5439 c-397 -41 -769 -218 -1041 -495 -222 -225 -374 -484 -473
-804 -52 -171 -76 -472 -51 -667 47 -377 223 -733 501 -1014 266 -270 598
-437 1009 -511 110 -19 448 -16 575 6 391 67 761 255 1014 515 535 553 658
1318 318 1996 -210 421 -572 734 -1025 885 -261 87 -547 118 -827 89z m474
-244 c46 -9 126 -32 178 -51 52 -18 100 -31 106 -27 5 3 7 2 4 -4 -3 -5 20
-22 51 -38 58 -29 64 -32 83 -34 5 0 8 -5 5 -9 -2 -4 12 -19 32 -32 20 -13 66
-47 101 -75 35 -27 69 -49 75 -47 6 2 8 0 4 -4 -4 -4 28 -44 71 -89 44 -45
102 -117 130 -159 28 -42 61 -91 74 -109 12 -17 23 -38 23 -44 2 -29 5 -34 16
-31 13 5 72 -108 64 -121 -3 -4 4 -15 15 -25 13 -11 19 -25 16 -37 -3 -10 -2
-19 2 -19 10 0 51 -120 51 -148 0 -13 4 -20 10 -17 6 3 10 -1 10 -10 0 -14 -3
-14 -30 0 -31 16 -41 29 -15 19 12 -5 13 -2 6 17 -6 17 -15 23 -30 21 -26 -4
-27 5 -3 32 16 20 16 20 -1 6 -15 -11 -22 -11 -39 -1 -16 10 -23 10 -37 -3
-22 -20 -26 -20 -45 0 -9 8 -25 16 -36 17 -13 1 -19 6 -15 15 3 9 -1 12 -14 7
-10 -3 -31 0 -47 6 -27 10 -28 12 -9 19 11 5 14 9 7 9 -7 1 -10 6 -7 11 3 6
-1 10 -9 10 -8 0 -18 -4 -21 -10 -3 -5 -13 -10 -21 -10 -9 0 -12 5 -8 11 4 7
0 9 -13 5 -21 -7 -83 19 -83 35 0 16 25 20 51 10 13 -5 18 -10 11 -10 -7 -1
-10 -5 -7 -11 3 -5 26 -10 51 -10 42 0 44 1 44 29 0 27 -3 30 -37 33 -36 3
-38 5 -41 41 -3 36 -4 37 -43 37 -39 0 -39 0 -39 40 l0 40 -80 0 -80 0 0 -40
c0 -30 -4 -40 -16 -40 -17 0 -14 -22 4 -28 7 -2 12 3 12 12 0 12 10 16 40 16
22 0 40 -3 40 -6 0 -4 -17 -21 -37 -40 -20 -19 -34 -37 -30 -41 4 -3 7 -1 7 6
0 7 5 9 10 6 20 -13 9 -23 -32 -30 -24 -3 -51 -9 -60 -11 -13 -4 -16 0 -13 15
3 14 -1 18 -12 14 -12 -5 -12 -8 -1 -15 9 -7 7 -8 -9 -5 -36 8 -28 1 36 -31
126 -63 361 -216 349 -227 -2 -3 -44 13 -94 34 -203 88 -508 169 -759 203
-136 18 -655 18 -790 0 -302 -41 -686 -147 -911 -252 -98 -45 -114 -48 -138
-21 -17 18 -17 21 -1 48 35 59 238 199 415 286 47 23 88 46 92 51 3 5 9 30 13
55 7 52 46 174 57 179 5 2 8 11 8 20 0 14 2 15 9 3 6 -9 6 -22 -1 -34 -5 -10
-7 -21 -4 -24 12 -13 26 48 15 68 -6 11 -8 25 -5 32 2 7 5 3 6 -8 1 -20 1 -20
15 -1 14 18 15 18 15 2 0 -9 5 -14 10 -11 6 3 13 -1 16 -9 11 -28 24 -17 24
19 0 24 -5 35 -14 35 -11 0 -15 11 -13 39 1 34 3 37 16 23 12 -11 13 -16 3
-20 -6 -2 -12 -9 -12 -16 0 -15 30 -17 31 -2 0 6 1 37 2 68 2 53 5 60 47 103
99 102 329 217 539 270 186 47 459 56 640 20z m468 -171 c-3 -3 -12 -4 -19 -1
-8 3 -5 6 6 6 11 1 17 -2 13 -5z m29 -3 c-7 -11 22 -23 36 -14 7 4 8 1 3 -7
-6 -10 -4 -12 8 -7 24 9 21 0 -4 -14 -17 -9 -20 -8 -14 2 6 9 3 11 -9 6 -11
-4 -15 -3 -11 4 4 6 1 10 -6 8 -35 -4 -43 1 -23 16 22 17 27 18 20 6z m70 -61
c0 -12 -4 -16 -9 -11 -5 5 -6 14 -3 20 10 15 12 14 12 -9z m74 -650 c0 -13
-20 -13 -40 0 -12 8 -9 10 13 10 15 0 27 -4 27 -10z m77 4 c-3 -3 -12 -4 -19
-1 -8 3 -5 6 6 6 11 1 17 -2 13 -5z m-103 -24 c16 -6 27 -13 24 -15 -2 -3 -29
4 -59 15 -32 12 -42 19 -24 16 17 -3 43 -9 59 -16z m-159 -20 c3 -6 -1 -7 -9
-4 -18 7 -21 14 -7 14 6 0 13 -4 16 -10z m552 -127 c-4 -3 -2 -12 4 -20 15
-17 -1 -16 -23 1 -19 14 -14 26 10 26 9 0 12 -3 9 -7z m-2643 -666 c62 -285
222 -569 433 -767 183 -171 434 -304 678 -360 44 -10 67 -19 52 -19 -52 -2
-362 49 -482 78 -238 59 -276 81 -439 252 -255 269 -404 617 -423 990 l-6 117
79 52 79 52 6 -159 c4 -87 14 -193 23 -236z m1721 344 c76 -34 135 -122 135
-201 0 -78 -51 -159 -123 -195 -80 -40 -161 -31 -230 26 -103 85 -108 233 -11
326 65 63 151 80 229 44z m-808 -112 c52 -25 98 -85 113 -149 23 -96 -34 -206
-127 -245 -92 -39 -213 1 -267 88 -57 92 -45 189 33 267 72 72 153 85 248 39z"/>
<path d="M5047 4866 c-49 -6 -86 -14 -82 -18 4 -4 -2 -4 -12 -2 -35 9 -262
-55 -344 -96 -42 -22 -99 -26 -130 -10 -11 6 -19 7 -19 1 0 -23 99 -29 147 -9
15 6 32 10 36 9 5 -1 6 3 3 8 -10 16 32 23 56 10 20 -11 22 -11 10 3 -11 14
-8 18 20 27 18 6 44 12 58 15 14 3 36 8 50 11 15 4 20 3 13 -2 -8 -6 4 -9 32
-11 24 -1 47 3 50 8 4 6 -6 7 -23 4 -19 -4 -32 -1 -37 7 -5 8 -4 10 3 5 6 -4
22 -2 34 5 18 10 24 8 39 -10 20 -24 51 -29 43 -6 -8 21 41 38 86 30 20 -3 49
-1 64 5 19 7 32 7 41 0 6 -5 15 -7 19 -2 12 11 215 16 356 8 104 -6 100 -5 72
-16 -12 -5 -30 -7 -40 -4 -13 5 -14 4 -3 -4 11 -8 11 -10 0 -14 -9 -3 -8 -6 5
-11 10 -4 15 -3 11 3 -4 6 7 8 27 5 27 -4 29 -3 8 3 -24 8 -24 9 10 17 19 5
38 8 41 7 4 -1 33 -4 65 -7 31 -3 60 -8 63 -11 3 -3 -9 -4 -28 -2 -18 1 -33 0
-32 -4 1 -5 1 -10 1 -12 0 -2 17 0 37 4 23 6 44 5 56 -2 15 -8 18 -7 12 3 -6
9 -3 10 11 5 31 -12 115 -28 120 -24 4 5 -154 44 -216 53 -188 29 -245 34
-435 33 -115 0 -250 -6 -298 -12z"/>
<path d="M5453 4843 c9 -2 23 -2 30 0 6 3 -1 5 -18 5 -16 0 -22 -2 -12 -5z"/>
<path d="M5027 4831 c-12 -4 3 -7 38 -8 31 -1 55 0 53 1 -9 9 -75 14 -91 7z"/>
<path d="M5295 4829 c5 -7 52 -6 59 2 3 2 -10 5 -29 5 -18 0 -32 -3 -30 -7z"/>
<path d="M5528 4823 c6 -2 18 -2 25 0 6 3 1 5 -13 5 -14 0 -19 -2 -12 -5z"/>
<path d="M6043 4769 c21 -11 44 -18 50 -16 7 2 -5 12 -27 21 -54 22 -69 19
-23 -5z"/>
<path d="M4774 4761 c4 -5 1 -11 -6 -13 -15 -5 -1 -28 18 -28 8 0 14 10 14 25
0 16 -6 25 -16 25 -8 0 -13 -4 -10 -9z"/>
<path d="M6010 4760 c8 -5 20 -10 25 -10 6 0 3 5 -5 10 -8 5 -19 10 -25 10 -5
0 -3 -5 5 -10z"/>
<path d="M6118 4753 c6 -2 9 -9 6 -15 -4 -6 1 -8 15 -3 12 4 21 2 21 -4 0 -6
6 -11 14 -11 8 0 27 -5 43 -12 15 -6 31 -11 36 -10 4 1 7 -3 7 -9 0 -5 5 -7
10 -4 6 3 10 2 10 -4 0 -5 -3 -11 -7 -14 -5 -2 -3 -2 4 -1 19 4 83 -16 83 -26
0 -6 11 -10 25 -10 14 0 25 -4 25 -10 0 -5 -6 -10 -12 -10 -9 0 -10 -3 -2 -8
6 -4 10 -15 8 -25 -1 -9 2 -15 6 -12 5 3 7 14 5 25 -3 17 0 19 22 14 18 -5 24
-4 19 5 -4 6 -11 9 -16 6 -4 -3 -10 -1 -12 3 -6 16 -294 144 -317 141 -3 0 0
-3 7 -6z"/>
<path d="M4655 4731 c-2 -5 8 -8 24 -7 40 2 46 10 10 13 -15 1 -31 -2 -34 -6z"/>
<path d="M4720 4696 c0 -16 37 -36 66 -36 23 0 16 27 -8 33 -13 2 -31 8 -40
12 -13 5 -18 2 -18 -9z"/>
<path d="M4646 4643 c-14 -15 -5 -43 14 -43 13 0 20 7 20 19 0 19 -23 35 -34
24z"/>
<path d="M4867 4633 c-4 -3 -7 -14 -7 -24 0 -13 -6 -17 -22 -14 -34 6 -50 -8
-45 -41 3 -26 8 -30 48 -35 37 -5 39 -6 14 -9 -26 -2 -27 -3 -7 -7 13 -3 31 2
41 11 11 10 44 16 101 19 47 2 22 3 -55 2 -77 -1 -129 1 -115 5 23 6 23 7 5
12 -11 2 3 3 30 1 28 -3 45 -1 39 4 -6 4 -13 15 -16 23 -5 13 1 15 29 12 35
-4 53 8 53 36 0 13 -81 18 -93 5z"/>
<path d="M4391 4614 c0 -11 3 -14 6 -6 3 7 2 16 -1 19 -3 4 -6 -2 -5 -13z"/>
<path d="M6464 4588 c-4 -6 -3 -8 3 -5 6 4 13 0 17 -8 3 -8 16 -15 28 -14 l23
0 -22 9 c-13 5 -23 14 -23 20 0 14 -17 13 -26 -2z"/>
<path d="M4370 4570 c0 -5 5 -10 11 -10 5 0 7 5 4 10 -3 6 -8 10 -11 10 -2 0
-4 -4 -4 -10z"/>
<path d="M4720 4570 c0 -5 9 -10 20 -10 11 0 20 5 20 10 0 6 -9 10 -20 10 -11
0 -20 -4 -20 -10z"/>
<path d="M4905 4570 c3 -5 15 -10 26 -10 10 0 19 5 19 10 0 6 -12 10 -26 10
-14 0 -23 -4 -19 -10z"/>
<path d="M6545 4550 c3 -5 8 -10 11 -10 2 0 4 5 4 10 0 6 -5 10 -11 10 -5 0
-7 -4 -4 -10z"/>
<path d="M5151 4546 c2 -2 20 -6 39 -10 25 -4 31 -3 20 4 -14 9 -69 15 -59 6z"/>
<path d="M6443 4536 c9 -7 17 -17 17 -23 0 -11 45 -11 56 0 5 4 0 5 -9 1 -13
-5 -20 -1 -24 15 -4 15 -13 21 -32 21 -24 -1 -24 -2 -8 -14z"/>
<path d="M4728 4523 c7 -3 16 -2 19 1 4 3 -2 6 -13 5 -11 0 -14 -3 -6 -6z"/>
<path d="M4946 4508 c3 -5 10 -6 15 -3 13 9 11 12 -6 12 -8 0 -12 -4 -9 -9z"/>
<path d="M4748 4503 c-16 -2 -28 -9 -28 -14 0 -11 7 -11 50 6 35 14 29 16 -22
8z"/>
<path d="M5105 4500 c-25 -11 1 -11 35 0 20 6 21 8 5 8 -11 0 -29 -3 -40 -8z"/>
<path d="M6580 4495 c7 -8 17 -15 22 -15 5 0 3 7 -6 15 -8 8 -18 15 -22 15 -3
0 -1 -7 6 -15z"/>
<path d="M6392 4488 c2 -7 8 -16 13 -20 15 -11 75 -10 75 2 0 5 -7 7 -15 3
-10 -3 -15 0 -13 8 2 9 -8 15 -30 17 -23 2 -32 -1 -30 -10z"/>
<path d="M5243 4483 c9 -2 25 -2 35 0 9 3 1 5 -18 5 -19 0 -27 -2 -17 -5z"/>
<path d="M6023 4483 c-17 -3 -22 -13 -25 -46 l-3 -42 39 4 c27 2 49 13 71 35
l32 32 -38 12 c-21 7 -42 11 -46 11 -5 -1 -18 -4 -30 -6z m47 -13 c-10 -6 -11
-10 -2 -10 6 0 12 -9 12 -20 0 -23 -25 -27 -46 -6 -26 26 -14 44 31 45 16 1
17 -1 5 -9z"/>
<path d="M4410 4470 c-24 -8 -23 -8 8 -9 17 -1 32 4 32 9 0 11 -5 11 -40 0z"/>
<path d="M4476 4468 c3 -4 -11 -10 -30 -13 -19 -4 -37 -13 -40 -21 -4 -11 -2
-12 14 -4 10 6 30 11 44 12 15 1 26 5 26 9 0 4 10 5 22 1 13 -3 19 -1 15 6 -4
5 -1 13 5 15 7 3 -3 5 -24 4 -20 -1 -34 -5 -32 -9z"/>
<path d="M5430 4470 c-9 -6 -10 -10 -3 -10 6 0 15 5 18 10 8 12 4 12 -15 0z"/>
<path d="M5517 4473 c-14 -13 -7 -23 16 -22 21 0 21 1 2 9 -18 7 -16 8 10 12
28 5 28 5 4 7 -14 0 -29 -2 -32 -6z"/>
<path d="M5592 4471 c-11 -6 -10 -10 4 -15 9 -3 19 -4 22 -1 3 3 0 5 -7 5 -7
0 -9 5 -6 10 7 12 4 12 -13 1z"/>
<path d="M5737 4469 c7 -7 15 -10 18 -7 3 3 -2 9 -12 12 -14 6 -15 5 -6 -5z"/>
<path d="M5838 4453 c7 -3 16 -2 19 1 4 3 -2 6 -13 5 -11 0 -14 -3 -6 -6z"/>
<path d="M4378 4443 c7 -3 16 -2 19 1 4 3 -2 6 -13 5 -11 0 -14 -3 -6 -6z"/>
<path d="M5598 4433 c7 -3 16 -2 19 1 4 3 -2 6 -13 5 -11 0 -14 -3 -6 -6z"/>
<path d="M5677 4429 c7 -7 15 -10 18 -7 3 3 -2 9 -12 12 -14 6 -15 5 -6 -5z"/>
<path d="M5717 4409 c7 -7 15 -10 18 -7 3 3 -2 9 -12 12 -14 6 -15 5 -6 -5z"/>
<path d="M4310 4400 c-8 -5 -10 -10 -5 -10 6 0 17 5 25 10 8 5 11 10 5 10 -5
0 -17 -5 -25 -10z"/>
<path d="M5831 4386 c-9 -11 -8 -15 5 -20 9 -4 19 -4 22 -1 3 3 0 5 -7 5 -8 0
-11 7 -7 15 7 19 2 19 -13 1z"/>
<path d="M5911 4386 c2 -2 24 -6 49 -10 31 -4 40 -3 30 4 -13 9 -89 15 -79 6z"/>
<path d="M6563 4343 c-17 -6 -17 -20 0 -20 8 0 14 6 14 14 0 7 -1 13 -1 12 -1
0 -7 -3 -13 -6z"/>
<path d="M5960 4326 c0 -2 9 -6 20 -9 11 -3 18 -1 14 4 -5 9 -34 13 -34 5z"/>
<path d="M6600 4302 c0 -8 9 -16 19 -19 11 -3 22 -12 24 -22 3 -14 5 -13 12 3
6 13 4 21 -3 24 -7 2 -12 9 -12 16 0 6 -9 12 -20 12 -11 0 -20 -6 -20 -14z"/>
<path d="M6560 4261 c0 -15 6 -21 21 -21 14 0 19 5 17 17 -5 26 -38 29 -38 4z"/>
<path d="M6523 4233 c4 -3 2 -12 -4 -20 -9 -10 -8 -13 5 -13 9 0 16 5 16 11 0
6 8 8 18 5 14 -5 14 -4 -2 9 -19 15 -46 22 -33 8z"/>
<path d="M6620 4160 c0 -5 5 -10 10 -10 6 0 10 5 10 10 0 6 -4 10 -10 10 -5 0
-10 -4 -10 -10z"/>
</g>
</svg>
